<svg xmlns="http://www.w3.org/2000/svg" xmlns:xlink="http://www.w3.org/1999/xlink" version="1.1" id="Layer_1" x="0" y="0" viewBox="0 0 150 150" xml:space="preserve" enable-background="new 0 0 150 150"><style type="text/css">
	.st0{fill:#ed2f59;}
	.st1{fill:#ed2f59;}
	.st2{fill:#ed2f59;stroke:#ed2f59;stroke-width:3;stroke-linecap:round;stroke-linejoin:round;stroke-miterlimit:10;}
	.st3{fill:none;stroke:#ed2f59;stroke-width:3;stroke-linecap:round;stroke-linejoin:round;stroke-miterlimit:10;}
</style><rect x="37.3" y="100" class="st0" width="98" height="9.5"/><circle class="st0" cx="88.2" cy="47.9" r="6.2"/><path class="st1" d="M97.9 41.7c-1 0-1.8 0.2-2.7 0.6 1.2 1.5 2 3.5 2 5.6 0 2.1-0.7 4.1-2 5.6 0.8 0.4 1.7 0.6 2.7 0.6 3.4 0 6.2-2.8 6.2-6.2C104.1 44.5 101.3 41.7 97.9 41.7z"/><line class="st2" x1="27.8" y1="80.5" x2="39" y2="80.5"/><line class="st2" x1="49.1" y1="80.5" x2="60.4" y2="80.5"/><line class="st2" x1="70.4" y1="80.5" x2="81.7" y2="80.5"/><line class="st2" x1="91.7" y1="80.5" x2="103" y2="80.5"/><path class="st3" d="M108.3 95H22.5c-3.4 0-6.1-2.7-6.1-6.1V39.9c0-3.4 2.7-6.1 6.1-6.1h85.8c3.4 0 6.1 2.7 6.1 6.1v48.9C114.4 92.2 111.7 95 108.3 95z"/><path class="st3" d="M114.4 54.7h14.3c3.6 0 6.6 2.9 6.6 6.6v48c0 3.6-2.9 6.6-6.6 6.6H43.8c-3.6 0-6.6-2.9-6.6-6.6V95"/><path class="st0" d="M39.7 66.1H27.6c-1.3 0-2.3-1-2.3-2.3V56c0-1.3 1-2.3 2.3-2.3h12.1c1.3 0 2.3 1 2.3 2.3v7.8C42 65.1 41 66.1 39.7 66.1z"/></svg>
