<?xml version="1.0" encoding="utf-8"?>
<!-- Svg Vector Icons : http://www.onlinewebfonts.com/icon -->
<!DOCTYPE svg PUBLIC "-//W3C//DTD SVG 1.1//EN" "http://www.w3.org/Graphics/SVG/1.1/DTD/svg11.dtd">
<svg version="1.1" xmlns="http://www.w3.org/2000/svg" xmlns:xlink="http://www.w3.org/1999/xlink" x="0px" y="0px" viewBox="0 0 1000 1000" enable-background="new 0 0 1000 1000" xml:space="preserve">
<metadata> Svg Vector Icons : http://www.onlinewebfonts.com/icon </metadata>
<g><path fill="red" d="M500.5,990.1c-42.4,0-85.1-5.6-127.3-16.9c-261-69.9-416.4-339.1-346.4-600.1C60.6,246.8,141.7,141.1,255,75.7C368.4,10.3,500.4-7.1,626.8,26.7c260.9,69.9,416.4,339.1,346.4,600.1c-12,44.7-30.5,87.8-55.1,128.2c-7.1,11.5-22.1,15.2-33.7,8.2c-11.6-7.1-15.2-22.1-8.2-33.7c22.2-36.4,38.9-75.2,49.7-115.4c30.5-113.8,14.8-232.6-44-334.6c-58.9-102-154-175-267.8-205.4c-113.8-30.4-232.6-14.8-334.6,44.1c-102,58.9-175,154-205.4,267.7C11.1,620.7,151,863,385.8,925.9c117.4,31.5,239.5,13.7,343.8-50c11.6-7.1,26.6-3.4,33.7,8.1c7.1,11.6,3.4,26.6-8.1,33.7C676.8,965.6,589.3,990.1,500.5,990.1L500.5,990.1z"/><path fill="red" d="M500,573.5c-13.5,0-24.5-10.9-24.5-24.5V279.5c0-13.5,10.9-24.5,24.5-24.5s24.5,11,24.5,24.5V549C524.5,562.5,513.5,573.5,500,573.5L500,573.5z"/><path fill="red" d="M500,647c13.5,0,24.5,11,24.5,24.5v49c0,13.5-11,24.5-24.5,24.5c-13.5,0-24.5-11-24.5-24.5v-49C475.5,657.9,486.5,647,500,647L500,647z"/></g>
</svg>
