<?xml version="1.0" encoding="utf-8"?>
<!-- Svg Vector Icons : http://www.onlinewebfonts.com/icon -->
<!DOCTYPE svg PUBLIC "-//W3C//DTD SVG 1.1//EN" "http://www.w3.org/Graphics/SVG/1.1/DTD/svg11.dtd">
<svg version="1.1" xmlns="http://www.w3.org/2000/svg" xmlns:xlink="http://www.w3.org/1999/xlink" x="0px" y="0px" viewBox="0 0 1000 1000" enable-background="new 0 0 1000 1000" xml:space="preserve">
<metadata> Svg Vector Icons : http://www.onlinewebfonts.com/icon </metadata>
<g><path fill="red" d="M493.6,13.2C229.2,13.2,10,232.4,10,496.8c0,270.8,219.2,490,490,490c270.8,0,490-219.2,490-490C983.6,232.4,764.3,13.2,493.6,13.2L493.6,13.2L493.6,13.2z M493.6,954.5c-251.4,0-451.3-206.3-451.3-451.3c0-251.4,206.3-451.3,451.3-451.3c251.4,0,451.3,206.3,451.3,451.3C951.3,748.2,745,954.5,493.6,954.5L493.6,954.5L493.6,954.5z M525.8,496.8l212.8-219.2c6.4-6.4,6.4-19.3,0-25.8c-6.4-6.4-19.3-6.4-25.8,0L493.6,471L280.8,258.2c-6.4-12.9-19.3-12.9-25.8,0c-6.4,6.4-6.4,12.9,0,25.8l212.8,212.8L255,716c-6.4,6.4-6.4,19.3,0,25.8c6.4,6.4,19.3,6.4,25.8,0L500,522.6l219.2,219.2c6.4,6.4,19.3,6.4,25.8,0c6.4-6.4,6.4-19.3,0-25.8L525.8,496.8L525.8,496.8L525.8,496.8z"/></g>
</svg>
